<svg width="38" height="38" viewBox="0 0 38 38" fill="none" xmlns="http://www.w3.org/2000/svg">
<path d="M23.2141 36.0518H14.7851C14.6837 36.0518 14.5865 36.092 14.5148 36.1637C14.4431 36.2354 14.4028 36.3326 14.4028 36.434C14.4028 36.5354 14.4431 36.6326 14.5148 36.7043C14.5865 36.7759 14.6837 36.8162 14.7851 36.8162H23.2141C23.3155 36.8162 23.4127 36.7759 23.4844 36.7043C23.556 36.6326 23.5963 36.5354 23.5963 36.434C23.5963 36.3326 23.556 36.2354 23.4844 36.1637C23.4127 36.092 23.3155 36.0518 23.2141 36.0518Z" fill="white"/>
<path d="M5.5449 22.0141C5.545 21.9638 5.53518 21.9141 5.51601 21.8677C5.49683 21.8213 5.46868 21.7791 5.43317 21.7436C5.39766 21.7081 5.35548 21.6799 5.30906 21.6607C5.26265 21.6416 5.2129 21.6317 5.16268 21.6318H1.79092C1.68955 21.6318 1.59232 21.6721 1.52064 21.7438C1.44896 21.8155 1.40869 21.9127 1.40869 22.0141C1.40869 22.1154 1.44896 22.2127 1.52064 22.2843C1.59232 22.356 1.68955 22.3963 1.79092 22.3963H5.16268C5.21287 22.3963 5.26257 22.3864 5.30895 22.3672C5.35532 22.348 5.39746 22.3198 5.43295 22.2843C5.46844 22.2488 5.4966 22.2067 5.51581 22.1603C5.53502 22.114 5.5449 22.0643 5.5449 22.0141Z" fill="white"/>
<path d="M7.59775 30.397L4.92587 32.4573C4.84556 32.5193 4.79317 32.6107 4.78023 32.7113C4.76728 32.812 4.79484 32.9136 4.85685 32.9939C4.91885 33.0742 5.01022 33.1266 5.11085 33.1396C5.21149 33.1525 5.31314 33.125 5.39345 33.0629L8.06533 31.0026C8.14564 30.9406 8.19803 30.8493 8.21097 30.7486C8.22392 30.648 8.19635 30.5463 8.13435 30.466C8.07234 30.3857 7.98098 30.3333 7.88034 30.3204C7.77971 30.3074 7.67806 30.335 7.59775 30.397Z" fill="white"/>
<path d="M4.95414 12.6914L7.55179 14.8438C7.59049 14.8758 7.63511 14.8999 7.68311 14.9146C7.73111 14.9294 7.78155 14.9346 7.83155 14.9299C7.88155 14.9252 7.93013 14.9106 7.97452 14.8871C8.01891 14.8636 8.05823 14.8316 8.09025 14.7929C8.12227 14.7542 8.14635 14.7096 8.16112 14.6616C8.17589 14.6136 8.18107 14.5632 8.17635 14.5132C8.17163 14.4632 8.1571 14.4146 8.13361 14.3702C8.11011 14.3258 8.0781 14.2865 8.03941 14.2545L5.44175 12.1058C5.36324 12.0504 5.26673 12.0266 5.17145 12.0392C5.07617 12.0517 4.98911 12.0997 4.92761 12.1735C4.86612 12.2474 4.8347 12.3417 4.83961 12.4377C4.84453 12.5336 4.88542 12.6242 4.95414 12.6914Z" fill="white"/>
<path d="M36.2091 21.6318H32.8373C32.7359 21.6318 32.6387 21.6721 32.567 21.7438C32.4953 21.8155 32.4551 21.9127 32.4551 22.0141C32.4551 22.1154 32.4953 22.2127 32.567 22.2843C32.6387 22.356 32.7359 22.3963 32.8373 22.3963H36.2091C36.3104 22.3963 36.4077 22.356 36.4793 22.2843C36.551 22.2127 36.5913 22.1154 36.5913 22.0141C36.5913 21.9127 36.551 21.8155 36.4793 21.7438C36.4077 21.6721 36.3104 21.6318 36.2091 21.6318Z" fill="white"/>
<path d="M33.0712 32.4573L30.3993 30.397C30.3595 30.3663 30.3141 30.3437 30.2656 30.3306C30.2171 30.3174 30.1665 30.314 30.1167 30.3204C30.0669 30.3268 30.0188 30.343 29.9752 30.3679C29.9316 30.3929 29.8934 30.4263 29.8627 30.466C29.832 30.5058 29.8094 30.5512 29.7963 30.5997C29.7831 30.6482 29.7797 30.6988 29.7861 30.7486C29.7925 30.7985 29.8087 30.8465 29.8336 30.8901C29.8586 30.9337 29.892 30.9719 29.9317 31.0026L32.6036 33.0629C32.6434 33.0936 32.6888 33.1162 32.7373 33.1294C32.7858 33.1425 32.8364 33.146 32.8862 33.1396C32.936 33.1332 32.9841 33.117 33.0277 33.092C33.0713 33.067 33.1095 33.0337 33.1402 32.9939C33.1709 32.9542 33.1935 32.9087 33.2066 32.8602C33.2198 32.8118 33.2232 32.7612 33.2168 32.7113C33.2104 32.6615 33.1943 32.6134 33.1693 32.5698C33.1443 32.5263 33.1109 32.488 33.0712 32.4573Z" fill="white"/>
<path d="M32.3401 16.4981C32.3483 16.239 32.3995 13.9427 31.5527 13.0684C31.4284 12.9389 31.2761 12.8396 31.1074 12.7782V6.54385C31.107 6.5267 31.1055 6.50959 31.1029 6.49264C31.1033 6.48893 31.1033 6.4852 31.1029 6.4815C31.0973 6.44793 31.0873 6.41525 31.0732 6.38428C31.0731 6.3818 31.0731 6.37933 31.0732 6.37685C31.058 6.34642 31.0391 6.318 31.0168 6.29224L31.0109 6.28556C30.9997 6.27344 30.9878 6.26204 30.9753 6.25142C30.9621 6.24063 30.9482 6.23071 30.9337 6.22174L30.9248 6.2158C30.9098 6.20671 30.8942 6.19877 30.878 6.19205L19.1485 1.2142C19.1015 1.19456 19.051 1.18445 19.0001 1.18445C18.9491 1.18445 18.8986 1.19456 18.8516 1.2142L7.12877 6.19279C7.05973 6.22212 7.00085 6.27111 6.95946 6.33367C6.91807 6.39623 6.896 6.46958 6.896 6.54459C6.896 6.6196 6.91807 6.69295 6.95946 6.75551C7.00085 6.81806 7.05973 6.86706 7.12877 6.89638L11.9367 8.93889V15.6557C11.9366 15.7058 11.9464 15.7555 11.9655 15.8019C11.9846 15.8483 12.0127 15.8904 12.0481 15.9259C12.0836 15.9614 12.1257 15.9896 12.172 16.0088C12.2183 16.028 12.268 16.0379 12.3181 16.0379C11.2105 17.0931 10.3684 18.3956 9.86064 19.8387C9.35291 21.2818 9.194 22.8246 9.39692 24.341C9.59983 25.8573 10.1588 27.304 11.0281 28.5629C11.8974 29.8217 13.0524 30.8569 14.3985 31.5838V33.6804C14.3987 33.7818 14.439 33.8789 14.5107 33.9505C14.5823 34.0221 14.6794 34.0625 14.7807 34.0627H23.2142C23.2645 34.0627 23.3142 34.0528 23.3606 34.0335C23.4071 34.0143 23.4492 33.986 23.4847 33.9505C23.5202 33.9149 23.5484 33.8727 23.5675 33.8262C23.5867 33.7797 23.5965 33.73 23.5964 33.6797C23.5966 33.6512 23.5934 33.6228 23.5868 33.5951V31.5912C24.9353 30.8659 26.0927 29.8314 26.9643 28.5724C27.8359 27.3135 28.3968 25.866 28.601 24.3485C28.8052 22.831 28.6469 21.2867 28.1391 19.8421C27.6314 18.3976 26.7885 17.0939 25.6797 16.0379C25.7299 16.0379 25.7796 16.028 25.8259 16.0088C25.8722 15.9896 25.9143 15.9614 25.9498 15.9259C25.9852 15.8904 26.0133 15.8483 26.0324 15.8019C26.0515 15.7555 26.0613 15.7058 26.0612 15.6557V8.93814L30.3392 7.12498V12.7804C30.1704 12.8416 30.018 12.9409 29.8939 13.0706C29.0471 13.9449 29.0975 16.2413 29.1064 16.5003C29.1093 16.5997 29.1509 16.6941 29.2222 16.7634C29.2936 16.8327 29.3892 16.8714 29.4886 16.8714H31.9609C32.0602 16.8706 32.1554 16.8313 32.2261 16.7616C32.2969 16.6919 32.3378 16.5974 32.3401 16.4981ZM19.0001 1.98162L28.8437 6.16014H19.0001C18.8987 6.16013 18.8015 6.20041 18.7298 6.27209C18.6581 6.34377 18.6178 6.44099 18.6178 6.54236C18.6178 6.64373 18.6581 6.74096 18.7298 6.81264C18.8015 6.88432 18.8987 6.92459 19.0001 6.92459H28.8437L25.5855 8.31248C25.5488 8.3217 25.5138 8.33646 25.4816 8.35627L19.0001 11.1076L12.5185 8.35478C12.4862 8.335 12.4512 8.32001 12.4146 8.31025L8.25838 6.54459L19.0001 1.98162ZM16.8284 24.1508C15.8888 23.8984 15.1719 23.4694 14.7599 22.8935C14.3955 22.3829 14.3146 21.7869 14.5247 21.1701C14.6553 20.7894 14.8512 20.7248 14.9833 20.7248C15.0167 20.7252 15.05 20.7287 15.0828 20.7352C15.7945 20.8532 16.8284 22.1268 16.8284 23.8524V24.1508ZM20.4102 33.2975H17.5899V25.08C18.5238 25.2054 19.4703 25.2054 20.4043 25.08L20.4102 33.2975ZM27.9263 23.0553C27.9307 24.7059 27.4753 26.3251 26.6114 27.7315C25.7474 29.1379 24.5089 30.276 23.0346 31.0182C22.9715 31.0502 22.9186 31.0991 22.8817 31.1593C22.8447 31.2196 22.8252 31.2889 22.8253 31.3596V33.299H21.1717V24.9375C22.3815 24.6465 23.3203 24.0981 23.8621 23.3396C24.369 22.6293 24.4885 21.7721 24.1983 20.9237C23.9601 20.229 23.4339 19.8765 22.7882 19.9849C21.6601 20.1726 20.4035 21.8092 20.4035 23.8569V24.3103C19.4701 24.4432 18.5226 24.4432 17.5892 24.3103V23.8569C17.5892 21.8092 16.3326 20.1726 15.2045 19.9849C14.561 19.878 14.0356 20.229 13.7944 20.9237C13.5042 21.7721 13.6237 22.6308 14.1313 23.3396C14.6731 24.0981 15.612 24.6465 16.8217 24.9375V33.2975H15.1674V31.3515C15.1675 31.281 15.1481 31.2118 15.1113 31.1517C15.0745 31.0915 15.0217 31.0428 14.9588 31.0108C13.6224 30.3314 12.4787 29.3263 11.6332 28.0883C10.7877 26.8503 10.2677 25.4192 10.1212 23.9272C9.97472 22.4352 10.2064 20.9303 10.7949 19.5515C11.3835 18.1726 12.3098 16.9643 13.4886 16.0379H24.513C25.579 16.8697 26.4405 17.9344 27.0316 19.1505C27.6228 20.3665 27.9278 21.7017 27.9234 23.0538L27.9263 23.0553ZM21.1724 24.1522V23.8554C21.1724 22.1298 22.2063 20.8562 22.9181 20.7382C22.9508 20.7317 22.9841 20.7282 23.0175 20.7278C23.1496 20.7278 23.3456 20.7894 23.4754 21.1731C23.687 21.7899 23.6053 22.3858 23.2409 22.8965C22.8283 23.4694 22.1113 23.8984 21.1717 24.1508L21.1724 24.1522ZM25.2997 15.2749H12.7011V9.26322L18.8516 11.875C18.8986 11.8949 18.9491 11.9051 19.0001 11.9051C19.0511 11.9051 19.1015 11.8949 19.1485 11.875L25.2983 9.26322L25.2997 15.2749ZM29.8657 16.1054C29.8805 15.2349 30.0327 14.0221 30.4401 13.602C30.5029 13.5308 30.5884 13.4836 30.6821 13.4685H30.7214H30.7615C30.8551 13.484 30.9405 13.5311 31.0035 13.602C31.4109 14.0221 31.5631 15.2349 31.5779 16.1054H29.8657Z" fill="white"/>
</svg>
