<svg width="52" height="52" viewBox="0 0 52 52" fill="none" xmlns="http://www.w3.org/2000/svg">
<path d="M21.2343 25.2601C22.6017 24.3583 24.2397 23.8333 26.0001 23.8333C30.7866 23.8333 34.6667 27.7136 34.6667 32.5C34.6667 37.2865 30.7866 41.1667 26.0001 41.1667C21.6039 41.1667 17.9724 37.8935 17.4092 33.6513C16.6191 29.7676 16.3103 25.0987 17.8584 20.8726C19.5168 16.3449 23.1966 12.6286 29.7846 10.904C30.9423 10.6008 32.1264 11.2937 32.4294 12.4512C32.7325 13.6088 32.0398 14.7929 30.8821 15.096C25.5535 16.4911 23.0584 19.2749 21.9272 22.363C21.59 23.2839 21.3654 24.2565 21.2343 25.2601Z" fill="#190D30"/>
</svg>
