<svg width="1134" height="45" viewBox="0 0 1134 45" fill="none" xmlns="http://www.w3.org/2000/svg">
<path d="M2.376 2.90011H15.996C20.876 2.90011 24.416 3.84011 26.616 5.72011C28.856 7.60011 29.976 9.86011 29.976 12.5001C29.976 17.3801 27.476 20.6801 22.476 22.4001C25.276 22.8001 27.516 23.7601 29.196 25.2801C30.916 26.7601 31.776 28.8201 31.776 31.4601C31.776 35.3801 30.456 38.4601 27.816 40.7001C25.176 42.9001 21.336 44.0001 16.296 44.0001H0.0960001C0.136 41.5201 0.936 40.2001 2.496 40.0401L4.416 39.8001V7.10011L0.036 6.74011C-0.084 5.70011 0.096 4.80011 0.576 4.04011C1.096 3.28011 1.696 2.90011 2.376 2.90011ZM11.916 6.74011V21.0801H13.176C16.376 21.0801 18.676 20.4401 20.076 19.1601C21.476 17.8801 22.176 15.9801 22.176 13.4601C22.176 10.9401 21.456 9.14011 20.016 8.06011C18.576 6.94011 16.696 6.46011 14.376 6.62011L12.096 6.74011H11.916ZM24.096 32.3001C24.096 27.1401 20.696 24.6001 13.896 24.6801H11.916V39.6801L14.796 39.7401C20.996 39.7801 24.096 37.3001 24.096 32.3001Z" fill="#07222C"/>
<path d="M42.8038 29.3001V29.9601C42.8038 33.2001 43.3838 35.6201 44.5438 37.2201C45.7438 38.7801 47.7838 39.5601 50.6638 39.5601C53.5838 39.5601 56.4438 38.4601 59.2438 36.2601C60.0438 36.8601 60.4438 37.8001 60.4438 39.0801C60.4438 40.3201 59.3238 41.6001 57.0838 42.9201C54.8838 44.2401 52.1238 44.9001 48.8038 44.9001C44.4838 44.9001 41.1238 43.6401 38.7238 41.1201C36.3638 38.5601 35.1838 34.7001 35.1838 29.5401C35.1838 24.3401 36.4638 20.2601 39.0238 17.3001C41.6238 14.3001 45.1838 12.8001 49.7038 12.8001C53.5438 12.8001 56.4038 14.0001 58.2838 16.4001C60.2038 18.8001 61.1238 21.9601 61.0438 25.8801V29.3001H42.8038ZM49.0438 17.6001C45.7638 17.6001 43.7838 20.1201 43.1038 25.1601H54.0238C53.9438 22.4401 53.4838 20.5001 52.6438 19.3401C51.8038 18.1801 50.6038 17.6001 49.0438 17.6001Z" fill="#07222C"/>
<path d="M98.008 44.0001H84.748V43.5201C84.748 41.3201 85.628 40.1401 87.388 39.9801L89.128 39.8601V25.1001C89.128 22.7801 88.668 21.1601 87.748 20.2401C86.828 19.2801 85.548 18.8001 83.908 18.8001C82.268 18.8001 80.928 19.0201 79.888 19.4601C78.848 19.9001 77.768 20.6001 76.648 21.5601V39.7401L80.908 40.1001C81.148 42.7001 80.248 44.0001 78.208 44.0001H64.828V43.5201C64.828 41.3201 65.708 40.1401 67.468 39.9801L69.328 39.8601V18.4401L66.988 18.2001C65.348 18.0401 64.608 16.8001 64.768 14.4801L75.628 13.1601L76.048 16.8201H76.228C77.708 15.5401 79.128 14.5601 80.488 13.8801C81.888 13.1601 83.528 12.8001 85.408 12.8001C88.488 12.8001 91.088 13.8401 93.208 15.9201C95.368 17.9601 96.448 21.1201 96.448 25.4001V39.7401L100.708 40.1001C100.948 42.7001 100.048 44.0001 98.008 44.0001Z" fill="#07222C"/>
<path d="M111.593 29.3001V29.9601C111.593 33.2001 112.173 35.6201 113.333 37.2201C114.533 38.7801 116.573 39.5601 119.453 39.5601C122.373 39.5601 125.233 38.4601 128.033 36.2601C128.833 36.8601 129.233 37.8001 129.233 39.0801C129.233 40.3201 128.113 41.6001 125.873 42.9201C123.673 44.2401 120.913 44.9001 117.593 44.9001C113.273 44.9001 109.913 43.6401 107.513 41.1201C105.153 38.5601 103.973 34.7001 103.973 29.5401C103.973 24.3401 105.253 20.2601 107.813 17.3001C110.413 14.3001 113.973 12.8001 118.493 12.8001C122.333 12.8001 125.193 14.0001 127.073 16.4001C128.993 18.8001 129.913 21.9601 129.833 25.8801V29.3001H111.593ZM117.833 17.6001C114.553 17.6001 112.573 20.1201 111.893 25.1601H122.813C122.733 22.4401 122.273 20.5001 121.433 19.3401C120.593 18.1801 119.393 17.6001 117.833 17.6001Z" fill="#07222C"/>
<path d="M137.937 13.7001V12.0801C137.937 8.72011 138.997 5.92011 141.117 3.68011C143.237 1.40011 146.017 0.24011 149.457 0.200111C153.937 0.120109 156.177 1.48011 156.177 4.28011C156.177 5.64011 155.737 6.64011 154.857 7.28011C153.977 7.92011 152.837 8.24011 151.437 8.24011C151.437 5.68011 150.457 4.40011 148.497 4.40011C146.297 4.40011 145.197 6.88011 145.197 11.8401V13.7001H152.937C153.137 16.5001 152.197 17.9001 150.117 17.9001H145.197V39.7401H145.257L151.317 40.1001C151.437 40.3401 151.417 40.8801 151.257 41.7201C150.897 43.2401 150.017 44.0001 148.617 44.0001H133.497V43.5201C133.497 41.3201 134.377 40.1401 136.137 39.9801L137.877 39.8601L137.937 17.9001H133.617C133.617 15.1001 134.597 13.7001 136.557 13.7001H137.937Z" fill="#07222C"/>
<path d="M170.61 44.0001H157.23V43.5201C157.23 41.3201 158.11 40.1401 159.87 39.9801L161.73 39.8601V18.0801L159.39 17.8401C157.75 17.6801 157.01 16.4401 157.17 14.1201L169.05 12.8001V39.7401L173.31 40.1001C173.55 42.7001 172.65 44.0001 170.61 44.0001ZM169.35 5.66011C169.35 6.90011 168.93 7.96011 168.09 8.84011C167.25 9.68011 166.19 10.1001 164.91 10.1001C163.67 10.1001 162.61 9.68011 161.73 8.84011C160.89 7.96011 160.47 6.90011 160.47 5.66011C160.47 4.42011 160.89 3.38011 161.73 2.54011C162.61 1.66011 163.67 1.22011 164.91 1.22011C166.15 1.22011 167.19 1.66011 168.03 2.54011C168.91 3.38011 169.35 4.42011 169.35 5.66011Z" fill="#07222C"/>
<path d="M186.951 17.9001V34.5201C186.951 37.7601 187.991 39.3801 190.071 39.3801C191.591 39.3801 192.851 39.1801 193.851 38.7801C194.891 38.3801 195.991 37.7001 197.151 36.7401C197.351 36.7401 197.611 37.0001 197.931 37.5201C198.251 38.0401 198.411 38.6001 198.411 39.2001C198.411 40.7601 197.311 42.1001 195.111 43.2201C192.911 44.3401 190.771 44.9001 188.691 44.9001C186.611 44.9001 184.971 44.6001 183.771 44.0001C182.571 43.4401 181.671 42.6001 181.071 41.4801C180.111 39.6401 179.631 37.2001 179.631 34.1601V17.9001H174.651C174.651 15.1001 175.631 13.7001 177.591 13.7001H179.631V6.02011L186.951 5.24011V13.7001H197.751C197.831 14.3001 197.771 14.9801 197.571 15.7401C197.211 17.1801 196.291 17.9001 194.811 17.9001H186.951Z" fill="#07222C"/>
<path d="M220.56 15.0201C221.56 15.9001 222.06 17.0401 222.06 18.4401C222.06 19.8401 221.6 20.9201 220.68 21.6801C219.8 22.4401 218.66 22.7201 217.26 22.5201C217.26 21.0401 216.68 19.8001 215.52 18.8001C214.36 17.7601 213.06 17.2401 211.62 17.2401C210.22 17.2401 209.14 17.5201 208.38 18.0801C207.62 18.6001 207.24 19.3001 207.24 20.1801C207.24 21.0601 207.78 21.8601 208.86 22.5801C209.98 23.2601 211.54 24.0001 213.54 24.8001C215.58 25.6001 217.04 26.2401 217.92 26.7201C218.8 27.1601 219.74 27.7601 220.74 28.5201C222.66 29.9601 223.62 32.1001 223.62 34.9401C223.62 37.7401 222.48 40.1001 220.2 42.0201C217.92 43.9401 214.88 44.9001 211.08 44.9001C208.28 44.9001 205.82 44.3801 203.7 43.3401C201.62 42.3001 200.58 40.7401 200.58 38.6601C200.58 37.2601 201.08 36.1801 202.08 35.4201C203.08 34.6201 204.26 34.2201 205.62 34.2201C206.14 38.3001 208.46 40.3401 212.58 40.3401C215.9 40.3401 217.56 39.2401 217.56 37.0401C217.56 35.6001 216.68 34.4401 214.92 33.5601C213.96 33.0401 212.8 32.5201 211.44 32.0001C210.08 31.4801 209 31.0401 208.2 30.6801C207.44 30.2801 206.6 29.7801 205.68 29.1801C204.76 28.5801 204 27.9601 203.4 27.3201C202.08 25.8401 201.42 24.0401 201.42 21.9201C201.42 19.0401 202.58 16.8001 204.9 15.2001C207.22 13.6001 210 12.8001 213.24 12.8001C216.48 12.8001 218.92 13.5401 220.56 15.0201Z" fill="#07222C"/>
<path d="M262.21 20.6001C261.09 18.4801 259.49 17.4201 257.41 17.4201C255.33 17.4201 253.71 18.4601 252.55 20.5401C251.43 22.6201 250.87 25.4601 250.87 29.0601C250.87 32.6201 251.43 35.4001 252.55 37.4001C253.71 39.3601 255.33 40.3401 257.41 40.3401C259.49 40.3401 261.09 39.3801 262.21 37.4601C263.37 35.5001 263.95 32.7401 263.95 29.1801C263.95 25.5801 263.37 22.7201 262.21 20.6001ZM243.25 29.3601C243.25 24.2401 244.51 20.2001 247.03 17.2401C249.59 14.2801 253.13 12.8001 257.65 12.8001C262.17 12.8001 265.61 14.2201 267.97 17.0601C270.37 19.9001 271.57 23.8401 271.57 28.8801C271.57 33.8801 270.29 37.8001 267.73 40.6401C265.17 43.4801 261.59 44.9001 256.99 44.9001C252.43 44.9001 248.99 43.5801 246.67 40.9401C244.39 38.3001 243.25 34.4401 243.25 29.3601Z" fill="#07222C"/>
<path d="M279.91 13.7001V12.0801C279.91 8.72011 280.97 5.92011 283.09 3.68011C285.21 1.40011 287.99 0.24011 291.43 0.200111C295.91 0.120109 298.15 1.48011 298.15 4.28011C298.15 5.64011 297.71 6.64011 296.83 7.28011C295.95 7.92011 294.81 8.24011 293.41 8.24011C293.41 5.68011 292.43 4.40011 290.47 4.40011C288.27 4.40011 287.17 6.88011 287.17 11.8401V13.7001H294.91C295.11 16.5001 294.17 17.9001 292.09 17.9001H287.17V39.7401H287.23L293.29 40.1001C293.41 40.3401 293.39 40.8801 293.23 41.7201C292.87 43.2401 291.99 44.0001 290.59 44.0001H275.47V43.5201C275.47 41.3201 276.35 40.1401 278.11 39.9801L279.85 39.8601L279.91 17.9001H275.59C275.59 15.1001 276.57 13.7001 278.53 13.7001H279.91Z" fill="#07222C"/>
<path d="M334.398 20.6001C333.278 18.4801 331.678 17.4201 329.598 17.4201C327.518 17.4201 325.898 18.4601 324.738 20.5401C323.618 22.6201 323.058 25.4601 323.058 29.0601C323.058 32.6201 323.618 35.4001 324.738 37.4001C325.898 39.3601 327.518 40.3401 329.598 40.3401C331.678 40.3401 333.278 39.3801 334.398 37.4601C335.558 35.5001 336.138 32.7401 336.138 29.1801C336.138 25.5801 335.558 22.7201 334.398 20.6001ZM315.438 29.3601C315.438 24.2401 316.698 20.2001 319.218 17.2401C321.778 14.2801 325.318 12.8001 329.838 12.8001C334.358 12.8001 337.798 14.2201 340.158 17.0601C342.558 19.9001 343.758 23.8401 343.758 28.8801C343.758 33.8801 342.478 37.8001 339.918 40.6401C337.358 43.4801 333.778 44.9001 329.178 44.9001C324.618 44.9001 321.178 43.5801 318.858 40.9401C316.578 38.3001 315.438 34.4401 315.438 29.3601Z" fill="#07222C"/>
<path d="M380.957 44.0001H367.697V43.5201C367.697 41.3201 368.577 40.1401 370.337 39.9801L372.077 39.8601V25.1001C372.077 22.7801 371.617 21.1601 370.697 20.2401C369.777 19.2801 368.497 18.8001 366.857 18.8001C365.217 18.8001 363.877 19.0201 362.837 19.4601C361.797 19.9001 360.717 20.6001 359.597 21.5601V39.7401L363.857 40.1001C364.097 42.7001 363.197 44.0001 361.157 44.0001H347.777V43.5201C347.777 41.3201 348.657 40.1401 350.417 39.9801L352.277 39.8601V18.4401L349.937 18.2001C348.297 18.0401 347.557 16.8001 347.717 14.4801L358.577 13.1601L358.997 16.8201H359.177C360.657 15.5401 362.077 14.5601 363.437 13.8801C364.837 13.1601 366.477 12.8001 368.357 12.8001C371.437 12.8001 374.037 13.8401 376.157 15.9201C378.317 17.9601 379.397 21.1201 379.397 25.4001V39.7401L383.657 40.1001C383.897 42.7001 382.997 44.0001 380.957 44.0001Z" fill="#07222C"/>
<path d="M400.122 44.0001H386.742V43.5201C386.742 41.3201 387.622 40.1401 389.382 39.9801L391.242 39.8601V6.38011L388.902 6.14011C387.262 5.98011 386.522 4.74011 386.682 2.42011L398.562 1.10011V39.7401L402.822 40.1001C403.062 42.7001 402.162 44.0001 400.122 44.0001Z" fill="#07222C"/>
<path d="M419.282 44.0001H405.902V43.5201C405.902 41.3201 406.782 40.1401 408.542 39.9801L410.402 39.8601V18.0801L408.062 17.8401C406.422 17.6801 405.682 16.4401 405.842 14.1201L417.722 12.8001V39.7401L421.982 40.1001C422.222 42.7001 421.322 44.0001 419.282 44.0001ZM418.022 5.66011C418.022 6.90011 417.602 7.96011 416.762 8.84011C415.922 9.68011 414.862 10.1001 413.582 10.1001C412.342 10.1001 411.282 9.68011 410.402 8.84011C409.562 7.96011 409.142 6.90011 409.142 5.66011C409.142 4.42011 409.562 3.38011 410.402 2.54011C411.282 1.66011 412.342 1.22011 413.582 1.22011C414.822 1.22011 415.862 1.66011 416.702 2.54011C417.582 3.38011 418.022 4.42011 418.022 5.66011Z" fill="#07222C"/>
<path d="M458.242 44.0001H444.982V43.5201C444.982 41.3201 445.862 40.1401 447.622 39.9801L449.362 39.8601V25.1001C449.362 22.7801 448.902 21.1601 447.982 20.2401C447.062 19.2801 445.782 18.8001 444.142 18.8001C442.502 18.8001 441.162 19.0201 440.122 19.4601C439.082 19.9001 438.002 20.6001 436.882 21.5601V39.7401L441.142 40.1001C441.382 42.7001 440.482 44.0001 438.442 44.0001H425.062V43.5201C425.062 41.3201 425.942 40.1401 427.702 39.9801L429.562 39.8601V18.4401L427.222 18.2001C425.582 18.0401 424.842 16.8001 425.002 14.4801L435.862 13.1601L436.282 16.8201H436.462C437.942 15.5401 439.362 14.5601 440.722 13.8801C442.122 13.1601 443.762 12.8001 445.642 12.8001C448.722 12.8001 451.322 13.8401 453.442 15.9201C455.602 17.9601 456.682 21.1201 456.682 25.4001V39.7401L460.942 40.1001C461.182 42.7001 460.282 44.0001 458.242 44.0001Z" fill="#07222C"/>
<path d="M471.827 29.3001V29.9601C471.827 33.2001 472.407 35.6201 473.567 37.2201C474.767 38.7801 476.807 39.5601 479.687 39.5601C482.607 39.5601 485.467 38.4601 488.267 36.2601C489.067 36.8601 489.467 37.8001 489.467 39.0801C489.467 40.3201 488.347 41.6001 486.107 42.9201C483.907 44.2401 481.147 44.9001 477.827 44.9001C473.507 44.9001 470.147 43.6401 467.747 41.1201C465.387 38.5601 464.207 34.7001 464.207 29.5401C464.207 24.3401 465.487 20.2601 468.047 17.3001C470.647 14.3001 474.207 12.8001 478.727 12.8001C482.567 12.8001 485.427 14.0001 487.307 16.4001C489.227 18.8001 490.147 21.9601 490.067 25.8801V29.3001H471.827ZM478.067 17.6001C474.787 17.6001 472.807 20.1201 472.127 25.1601H483.047C482.967 22.4401 482.507 20.5001 481.667 19.3401C480.827 18.1801 479.627 17.6001 478.067 17.6001Z" fill="#07222C"/>
<path d="M513.566 2.90011H527.606C541.606 2.90011 548.606 9.68011 548.606 23.2401C548.606 29.9601 546.786 35.1001 543.146 38.6601C539.506 42.2201 534.426 44.0001 527.906 44.0001H510.446C510.326 43.0401 510.426 42.1601 510.746 41.3601C511.106 40.5601 511.706 40.1201 512.546 40.0401L514.706 39.8001V7.16011H514.646L510.446 6.80011C510.406 5.40011 510.606 4.40011 511.046 3.80011C511.486 3.20011 512.326 2.90011 513.566 2.90011ZM526.106 39.8601C531.266 40.1801 535.006 39.0401 537.326 36.4401C539.646 33.8401 540.806 29.5401 540.806 23.5401C540.806 17.5001 539.606 13.2001 537.206 10.6401C534.846 8.04011 530.966 6.84011 525.566 7.04011L522.206 7.16011V39.6201L526.106 39.8601Z" fill="#07222C"/>
<path d="M581.361 41.3001C581.361 43.7001 579.801 44.9001 576.681 44.9001C573.561 44.9001 571.541 43.8601 570.621 41.7801C568.101 43.8601 565.321 44.9001 562.281 44.9001C559.241 44.9001 556.841 44.1601 555.081 42.6801C553.361 41.1601 552.501 39.1001 552.501 36.5001C552.501 33.8601 553.521 31.7001 555.561 30.0201C557.601 28.3401 560.821 27.5001 565.221 27.5001C566.941 27.5001 568.581 27.6201 570.141 27.8601V25.2201C570.141 22.4601 569.681 20.5001 568.761 19.3401C567.881 18.1801 566.661 17.6001 565.101 17.6001C563.541 17.6001 562.281 18.1001 561.321 19.1001C560.401 20.1001 559.941 21.4601 559.941 23.1801C558.341 23.3401 557.001 23.1001 555.921 22.4601C554.881 21.7801 554.361 20.7601 554.361 19.4001C554.361 17.4801 555.361 15.9001 557.361 14.6601C559.361 13.4201 561.941 12.8001 565.101 12.8001C573.341 12.8001 577.461 16.8001 577.461 24.8001V40.8201L581.361 41.3001ZM570.141 32.3601C568.701 31.8401 567.181 31.5801 565.581 31.5801C564.021 31.5801 562.721 31.9601 561.681 32.7201C560.641 33.4401 560.121 34.4801 560.121 35.8401C560.121 38.6401 561.561 40.0401 564.441 40.0401C566.481 40.0401 568.381 39.4601 570.141 38.3001V32.3601Z" fill="#07222C"/>
<path d="M594.47 17.9001V34.5201C594.47 37.7601 595.51 39.3801 597.59 39.3801C599.11 39.3801 600.37 39.1801 601.37 38.7801C602.41 38.3801 603.51 37.7001 604.67 36.7401C604.87 36.7401 605.13 37.0001 605.45 37.5201C605.77 38.0401 605.93 38.6001 605.93 39.2001C605.93 40.7601 604.83 42.1001 602.63 43.2201C600.43 44.3401 598.29 44.9001 596.21 44.9001C594.13 44.9001 592.49 44.6001 591.29 44.0001C590.09 43.4401 589.19 42.6001 588.59 41.4801C587.63 39.6401 587.15 37.2001 587.15 34.1601V17.9001H582.17C582.17 15.1001 583.15 13.7001 585.11 13.7001H587.15V6.02011L594.47 5.24011V13.7001H605.27C605.35 14.3001 605.29 14.9801 605.09 15.7401C604.73 17.1801 603.81 17.9001 602.33 17.9001H594.47Z" fill="#07222C"/>
<path d="M637.259 41.3001C637.259 43.7001 635.699 44.9001 632.579 44.9001C629.459 44.9001 627.439 43.8601 626.519 41.7801C623.999 43.8601 621.219 44.9001 618.179 44.9001C615.139 44.9001 612.739 44.1601 610.979 42.6801C609.259 41.1601 608.399 39.1001 608.399 36.5001C608.399 33.8601 609.419 31.7001 611.459 30.0201C613.499 28.3401 616.719 27.5001 621.119 27.5001C622.839 27.5001 624.479 27.6201 626.039 27.8601V25.2201C626.039 22.4601 625.579 20.5001 624.659 19.3401C623.779 18.1801 622.559 17.6001 620.999 17.6001C619.439 17.6001 618.179 18.1001 617.219 19.1001C616.299 20.1001 615.839 21.4601 615.839 23.1801C614.239 23.3401 612.899 23.1001 611.819 22.4601C610.779 21.7801 610.259 20.7601 610.259 19.4001C610.259 17.4801 611.259 15.9001 613.259 14.6601C615.259 13.4201 617.839 12.8001 620.999 12.8001C629.239 12.8001 633.359 16.8001 633.359 24.8001V40.8201L637.259 41.3001ZM626.039 32.3601C624.599 31.8401 623.079 31.5801 621.479 31.5801C619.919 31.5801 618.619 31.9601 617.579 32.7201C616.539 33.4401 616.019 34.4801 616.019 35.8401C616.019 38.6401 617.459 40.0401 620.339 40.0401C622.379 40.0401 624.279 39.4601 626.039 38.3001V32.3601Z" fill="#07222C"/>
<path d="M659.369 15.0201C660.369 15.9001 660.869 17.0401 660.869 18.4401C660.869 19.8401 660.409 20.9201 659.489 21.6801C658.609 22.4401 657.469 22.7201 656.068 22.5201C656.068 21.0401 655.488 19.8001 654.328 18.8001C653.169 17.7601 651.869 17.2401 650.429 17.2401C649.029 17.2401 647.948 17.5201 647.188 18.0801C646.428 18.6001 646.049 19.3001 646.049 20.1801C646.049 21.0601 646.589 21.8601 647.669 22.5801C648.789 23.2601 650.349 24.0001 652.349 24.8001C654.388 25.6001 655.849 26.2401 656.729 26.7201C657.609 27.1601 658.549 27.7601 659.549 28.5201C661.469 29.9601 662.429 32.1001 662.429 34.9401C662.429 37.7401 661.289 40.1001 659.008 42.0201C656.728 43.9401 653.688 44.9001 649.888 44.9001C647.089 44.9001 644.628 44.3801 642.508 43.3401C640.428 42.3001 639.388 40.7401 639.388 38.6601C639.388 37.2601 639.888 36.1801 640.888 35.4201C641.888 34.6201 643.069 34.2201 644.429 34.2201C644.949 38.3001 647.268 40.3401 651.388 40.3401C654.708 40.3401 656.369 39.2401 656.369 37.0401C656.369 35.6001 655.489 34.4401 653.729 33.5601C652.768 33.0401 651.608 32.5201 650.248 32.0001C648.888 31.4801 647.808 31.0401 647.008 30.6801C646.248 30.2801 645.409 29.7801 644.489 29.1801C643.569 28.5801 642.808 27.9601 642.208 27.3201C640.888 25.8401 640.229 24.0401 640.229 21.9201C640.229 19.0401 641.388 16.8001 643.708 15.2001C646.029 13.6001 648.809 12.8001 652.049 12.8001C655.289 12.8001 657.729 13.5401 659.369 15.0201Z" fill="#07222C"/>
<path d="M680.944 12.8001C683.824 12.8001 686.164 13.4201 687.964 14.6601C689.804 15.8601 690.724 17.4001 690.724 19.2801C690.724 21.1601 690.164 22.4801 689.044 23.2401C687.924 24.0001 686.744 24.3001 685.504 24.1401C685.464 22.4201 685.004 20.9201 684.124 19.6401C683.244 18.3601 681.824 17.7201 679.864 17.7201C677.944 17.7201 676.424 18.6601 675.304 20.5401C674.184 22.3801 673.624 24.9801 673.624 28.3401C673.624 35.7801 676.484 39.5001 682.204 39.5001C684.884 39.5001 687.444 38.4201 689.884 36.2601C690.284 36.5001 690.604 36.9001 690.844 37.4601C691.084 38.0201 691.204 38.5001 691.204 38.9001C691.204 40.1801 690.024 41.5001 687.664 42.8601C685.344 44.2201 682.664 44.9001 679.624 44.9001C675.384 44.9001 672.044 43.5401 669.604 40.8201C667.204 38.0601 666.004 34.2001 666.004 29.2401C666.004 24.2801 667.364 20.3001 670.084 17.3001C672.804 14.3001 676.424 12.8001 680.944 12.8001Z" fill="#07222C"/>
<path d="M707.505 44.0001H694.125V43.5201C694.125 41.3201 695.005 40.1401 696.765 39.9801L698.625 39.8601V18.0801L696.285 17.8401C694.645 17.6801 693.905 16.4401 694.065 14.1201L705.945 12.8001V39.7401L710.205 40.1001C710.445 42.7001 709.545 44.0001 707.505 44.0001ZM706.245 5.66011C706.245 6.90011 705.825 7.96011 704.985 8.84011C704.145 9.68011 703.085 10.1001 701.805 10.1001C700.565 10.1001 699.505 9.68011 698.625 8.84011C697.785 7.96011 697.365 6.90011 697.365 5.66011C697.365 4.42011 697.785 3.38011 698.625 2.54011C699.505 1.66011 700.565 1.22011 701.805 1.22011C703.045 1.22011 704.085 1.66011 704.925 2.54011C705.805 3.38011 706.245 4.42011 706.245 5.66011Z" fill="#07222C"/>
<path d="M721.085 29.3001V29.9601C721.085 33.2001 721.665 35.6201 722.825 37.2201C724.025 38.7801 726.065 39.5601 728.945 39.5601C731.865 39.5601 734.725 38.4601 737.525 36.2601C738.325 36.8601 738.725 37.8001 738.725 39.0801C738.725 40.3201 737.605 41.6001 735.365 42.9201C733.165 44.2401 730.405 44.9001 727.085 44.9001C722.765 44.9001 719.405 43.6401 717.005 41.1201C714.645 38.5601 713.465 34.7001 713.465 29.5401C713.465 24.3401 714.745 20.2601 717.305 17.3001C719.905 14.3001 723.465 12.8001 727.985 12.8001C731.825 12.8001 734.685 14.0001 736.565 16.4001C738.485 18.8001 739.405 21.9601 739.325 25.8801V29.3001H721.085ZM727.325 17.6001C724.045 17.6001 722.065 20.1201 721.385 25.1601H732.305C732.225 22.4401 731.765 20.5001 730.925 19.3401C730.085 18.1801 728.885 17.6001 727.325 17.6001Z" fill="#07222C"/>
<path d="M776.289 44.0001H763.029V43.5201C763.029 41.3201 763.909 40.1401 765.669 39.9801L767.409 39.8601V25.1001C767.409 22.7801 766.949 21.1601 766.029 20.2401C765.109 19.2801 763.829 18.8001 762.189 18.8001C760.549 18.8001 759.209 19.0201 758.169 19.4601C757.129 19.9001 756.049 20.6001 754.929 21.5601V39.7401L759.189 40.1001C759.429 42.7001 758.529 44.0001 756.489 44.0001H743.109V43.5201C743.109 41.3201 743.989 40.1401 745.749 39.9801L747.609 39.8601V18.4401L745.269 18.2001C743.629 18.0401 742.889 16.8001 743.049 14.4801L753.909 13.1601L754.329 16.8201H754.509C755.989 15.5401 757.409 14.5601 758.769 13.8801C760.169 13.1601 761.809 12.8001 763.689 12.8001C766.769 12.8001 769.369 13.8401 771.489 15.9201C773.649 17.9601 774.729 21.1201 774.729 25.4001V39.7401L778.989 40.1001C779.229 42.7001 778.329 44.0001 776.289 44.0001Z" fill="#07222C"/>
<path d="M797.194 12.8001C800.074 12.8001 802.414 13.4201 804.214 14.6601C806.054 15.8601 806.974 17.4001 806.974 19.2801C806.974 21.1601 806.414 22.4801 805.294 23.2401C804.174 24.0001 802.994 24.3001 801.754 24.1401C801.714 22.4201 801.254 20.9201 800.374 19.6401C799.494 18.3601 798.074 17.7201 796.114 17.7201C794.194 17.7201 792.674 18.6601 791.554 20.5401C790.434 22.3801 789.874 24.9801 789.874 28.3401C789.874 35.7801 792.734 39.5001 798.454 39.5001C801.134 39.5001 803.694 38.4201 806.134 36.2601C806.534 36.5001 806.854 36.9001 807.094 37.4601C807.334 38.0201 807.454 38.5001 807.454 38.9001C807.454 40.1801 806.274 41.5001 803.914 42.8601C801.594 44.2201 798.914 44.9001 795.874 44.9001C791.634 44.9001 788.294 43.5401 785.854 40.8201C783.454 38.0601 782.254 34.2001 782.254 29.2401C782.254 24.2801 783.614 20.3001 786.334 17.3001C789.054 14.3001 792.674 12.8001 797.194 12.8001Z" fill="#07222C"/>
<path d="M818.175 29.3001V29.9601C818.175 33.2001 818.755 35.6201 819.915 37.2201C821.115 38.7801 823.155 39.5601 826.035 39.5601C828.955 39.5601 831.815 38.4601 834.615 36.2601C835.415 36.8601 835.815 37.8001 835.815 39.0801C835.815 40.3201 834.695 41.6001 832.455 42.9201C830.255 44.2401 827.495 44.9001 824.175 44.9001C819.855 44.9001 816.495 43.6401 814.095 41.1201C811.735 38.5601 810.555 34.7001 810.555 29.5401C810.555 24.3401 811.835 20.2601 814.395 17.3001C816.995 14.3001 820.555 12.8001 825.075 12.8001C828.915 12.8001 831.775 14.0001 833.655 16.4001C835.575 18.8001 836.495 21.9601 836.415 25.8801V29.3001H818.175ZM824.415 17.6001C821.135 17.6001 819.155 20.1201 818.475 25.1601H829.395C829.315 22.4401 828.855 20.5001 828.015 19.3401C827.175 18.1801 825.975 17.6001 824.415 17.6001Z" fill="#07222C"/>
<path d="M886.914 34.2201V44.0001H856.734C856.734 41.4401 857.614 40.1001 859.374 39.9801L861.114 39.8601V7.16011L856.794 6.80011C856.674 6.56011 856.694 6.02011 856.854 5.18011C857.214 3.66011 858.094 2.90011 859.494 2.90011H885.774V11.9601C885.774 13.7601 884.494 14.5401 881.934 14.3001L881.394 7.22011L868.614 7.04011V21.9201L879.354 20.6601C879.794 22.5801 879.814 24.5601 879.414 26.6001L868.614 26.0001V39.7401L882.594 39.2601L883.074 31.8801C885.634 31.6401 886.914 32.4201 886.914 34.2201Z" fill="#07222C"/>
<path d="M922.748 41.1201C922.748 43.6801 921.048 44.9601 917.648 44.9601C914.288 44.9601 912.288 43.8601 911.648 41.6601C909.088 43.8201 906.168 44.9001 902.888 44.9001C899.648 44.9001 896.848 43.7401 894.488 41.4201C892.128 39.0601 890.908 35.3201 890.828 30.2001C890.748 25.0801 891.968 20.9001 894.488 17.6601C897.048 14.4201 900.788 12.8001 905.708 12.8001C907.908 12.8001 909.808 13.1401 911.408 13.8201V6.38011L909.068 6.14011C907.428 5.98011 906.688 4.74011 906.848 2.42011L918.728 1.10011V40.7601L922.748 41.1201ZM905.228 17.6601C900.708 17.6601 898.448 21.4001 898.448 28.8801C898.448 32.3201 899.028 34.9801 900.188 36.8601C901.388 38.7401 903.048 39.6801 905.168 39.6801C907.328 39.6801 909.408 38.7801 911.408 36.9801V20.0601C909.488 18.4601 907.428 17.6601 905.228 17.6601Z" fill="#07222C"/>
<path d="M942.557 17.4801C942.557 14.9601 943.437 13.7001 945.197 13.7001H954.557V39.9801H955.877C957.237 40.0201 957.917 41.2801 957.917 43.7601L949.397 44.6001L948.137 41.2401C945.297 43.6801 942.357 44.9001 939.317 44.9001C936.317 44.9001 933.737 43.8801 931.577 41.8401C929.417 39.7601 928.337 36.5801 928.337 32.3001V17.9601H923.957V17.4801C923.957 14.9601 924.837 13.7001 926.597 13.7001H935.657V32.6001C935.657 35.0801 936.137 36.8401 937.097 37.8801C938.057 38.9201 939.537 39.4401 941.537 39.4401C943.537 39.4401 945.437 38.7601 947.237 37.4001V17.9601H942.557V17.4801Z" fill="#07222C"/>
<path d="M976.432 12.8001C979.312 12.8001 981.652 13.4201 983.452 14.6601C985.292 15.8601 986.212 17.4001 986.212 19.2801C986.212 21.1601 985.652 22.4801 984.532 23.2401C983.412 24.0001 982.232 24.3001 980.992 24.1401C980.952 22.4201 980.492 20.9201 979.612 19.6401C978.732 18.3601 977.312 17.7201 975.352 17.7201C973.432 17.7201 971.912 18.6601 970.792 20.5401C969.672 22.3801 969.112 24.9801 969.112 28.3401C969.112 35.7801 971.972 39.5001 977.692 39.5001C980.372 39.5001 982.932 38.4201 985.372 36.2601C985.772 36.5001 986.092 36.9001 986.332 37.4601C986.572 38.0201 986.692 38.5001 986.692 38.9001C986.692 40.1801 985.512 41.5001 983.152 42.8601C980.832 44.2201 978.152 44.9001 975.112 44.9001C970.872 44.9001 967.532 43.5401 965.092 40.8201C962.692 38.0601 961.492 34.2001 961.492 29.2401C961.492 24.2801 962.852 20.3001 965.572 17.3001C968.292 14.3001 971.912 12.8001 976.432 12.8001Z" fill="#07222C"/>
<path d="M1018.35 41.3001C1018.35 43.7001 1016.79 44.9001 1013.67 44.9001C1010.55 44.9001 1008.53 43.8601 1007.61 41.7801C1005.09 43.8601 1002.31 44.9001 999.273 44.9001C996.233 44.9001 993.833 44.1601 992.073 42.6801C990.353 41.1601 989.493 39.1001 989.493 36.5001C989.493 33.8601 990.513 31.7001 992.553 30.0201C994.593 28.3401 997.813 27.5001 1002.21 27.5001C1003.93 27.5001 1005.57 27.6201 1007.13 27.8601V25.2201C1007.13 22.4601 1006.67 20.5001 1005.75 19.3401C1004.87 18.1801 1003.65 17.6001 1002.09 17.6001C1000.53 17.6001 999.273 18.1001 998.313 19.1001C997.393 20.1001 996.933 21.4601 996.933 23.1801C995.333 23.3401 993.993 23.1001 992.913 22.4601C991.873 21.7801 991.353 20.7601 991.353 19.4001C991.353 17.4801 992.353 15.9001 994.353 14.6601C996.353 13.4201 998.933 12.8001 1002.09 12.8001C1010.33 12.8001 1014.45 16.8001 1014.45 24.8001V40.8201L1018.35 41.3001ZM1007.13 32.3601C1005.69 31.8401 1004.17 31.5801 1002.57 31.5801C1001.01 31.5801 999.713 31.9601 998.673 32.7201C997.633 33.4401 997.113 34.4801 997.113 35.8401C997.113 38.6401 998.553 40.0401 1001.43 40.0401C1003.47 40.0401 1005.37 39.4601 1007.13 38.3001V32.3601Z" fill="#07222C"/>
<path d="M1031.46 17.9001V34.5201C1031.46 37.7601 1032.5 39.3801 1034.58 39.3801C1036.1 39.3801 1037.36 39.1801 1038.36 38.7801C1039.4 38.3801 1040.5 37.7001 1041.66 36.7401C1041.86 36.7401 1042.12 37.0001 1042.44 37.5201C1042.76 38.0401 1042.92 38.6001 1042.92 39.2001C1042.92 40.7601 1041.82 42.1001 1039.62 43.2201C1037.42 44.3401 1035.28 44.9001 1033.2 44.9001C1031.12 44.9001 1029.48 44.6001 1028.28 44.0001C1027.08 43.4401 1026.18 42.6001 1025.58 41.4801C1024.62 39.6401 1024.14 37.2001 1024.14 34.1601V17.9001H1019.16C1019.16 15.1001 1020.14 13.7001 1022.1 13.7001H1024.14V6.02011L1031.46 5.24011V13.7001H1042.26C1042.34 14.3001 1042.28 14.9801 1042.08 15.7401C1041.72 17.1801 1040.8 17.9001 1039.32 17.9001H1031.46Z" fill="#07222C"/>
<path d="M1058.89 44.0001H1045.51V43.5201C1045.51 41.3201 1046.39 40.1401 1048.15 39.9801L1050.01 39.8601V18.0801L1047.67 17.8401C1046.03 17.6801 1045.29 16.4401 1045.45 14.1201L1057.33 12.8001V39.7401L1061.59 40.1001C1061.83 42.7001 1060.93 44.0001 1058.89 44.0001ZM1057.63 5.66011C1057.63 6.90011 1057.21 7.96011 1056.37 8.84011C1055.53 9.68011 1054.47 10.1001 1053.19 10.1001C1051.95 10.1001 1050.89 9.68011 1050.01 8.84011C1049.17 7.96011 1048.75 6.90011 1048.75 5.66011C1048.75 4.42011 1049.17 3.38011 1050.01 2.54011C1050.89 1.66011 1051.95 1.22011 1053.19 1.22011C1054.43 1.22011 1055.47 1.66011 1056.31 2.54011C1057.19 3.38011 1057.63 4.42011 1057.63 5.66011Z" fill="#07222C"/>
<path d="M1083.81 20.6001C1082.69 18.4801 1081.09 17.4201 1079.01 17.4201C1076.93 17.4201 1075.31 18.4601 1074.15 20.5401C1073.03 22.6201 1072.47 25.4601 1072.47 29.0601C1072.47 32.6201 1073.03 35.4001 1074.15 37.4001C1075.31 39.3601 1076.93 40.3401 1079.01 40.3401C1081.09 40.3401 1082.69 39.3801 1083.81 37.4601C1084.97 35.5001 1085.55 32.7401 1085.55 29.1801C1085.55 25.5801 1084.97 22.7201 1083.81 20.6001ZM1064.85 29.3601C1064.85 24.2401 1066.11 20.2001 1068.63 17.2401C1071.19 14.2801 1074.73 12.8001 1079.25 12.8001C1083.77 12.8001 1087.21 14.2201 1089.57 17.0601C1091.97 19.9001 1093.17 23.8401 1093.17 28.8801C1093.17 33.8801 1091.89 37.8001 1089.33 40.6401C1086.77 43.4801 1083.19 44.9001 1078.59 44.9001C1074.03 44.9001 1070.59 43.5801 1068.27 40.9401C1065.99 38.3001 1064.85 34.4401 1064.85 29.3601Z" fill="#07222C"/>
<path d="M1130.37 44.0001H1117.11V43.5201C1117.11 41.3201 1117.99 40.1401 1119.75 39.9801L1121.49 39.8601V25.1001C1121.49 22.7801 1121.03 21.1601 1120.11 20.2401C1119.19 19.2801 1117.91 18.8001 1116.27 18.8001C1114.63 18.8001 1113.29 19.0201 1112.25 19.4601C1111.21 19.9001 1110.13 20.6001 1109.01 21.5601V39.7401L1113.27 40.1001C1113.51 42.7001 1112.61 44.0001 1110.57 44.0001H1097.19V43.5201C1097.19 41.3201 1098.07 40.1401 1099.83 39.9801L1101.69 39.8601V18.4401L1099.35 18.2001C1097.71 18.0401 1096.97 16.8001 1097.13 14.4801L1107.99 13.1601L1108.41 16.8201H1108.59C1110.07 15.5401 1111.49 14.5601 1112.85 13.8801C1114.25 13.1601 1115.89 12.8001 1117.77 12.8001C1120.85 12.8001 1123.45 13.8401 1125.57 15.9201C1127.73 17.9601 1128.81 21.1201 1128.81 25.4001V39.7401L1133.07 40.1001C1133.31 42.7001 1132.41 44.0001 1130.37 44.0001Z" fill="#07222C"/>
</svg>
