<svg width="37" height="36" viewBox="0 0 37 36" fill="none" xmlns="http://www.w3.org/2000/svg">
<path d="M36.6956 18.2095C36.6956 8.59893 28.4817 0.809204 18.3478 0.809204C8.21391 0.809204 0 8.59893 0 18.2095C0 26.8947 6.7095 34.0933 15.481 35.3978V23.238H10.823V18.207H15.481V14.3733C15.481 10.0132 18.2189 7.6037 22.4114 7.6037C24.4181 7.6037 26.5197 7.94293 26.5197 7.94293V12.2257H24.2051C21.9248 12.2257 21.2146 13.5676 21.2146 14.942V18.207H26.304L25.4912 23.238H21.2173V35.3978C29.9888 34.0933 36.6983 26.8947 36.6983 18.2095H36.6956Z" fill="#40839D"/>
<path d="M25.489 23.2404L26.3017 18.2094H21.2125V14.9443C21.2125 13.5675 21.9226 12.228 24.2029 12.228H26.5174V7.94531C26.5174 7.94531 24.4185 7.60608 22.4091 7.60608C18.2167 7.60608 15.4788 10.0156 15.4788 14.3756V18.2094H10.8208V23.2404H15.4788V35.4002C16.4125 35.5398 17.3698 35.6122 18.3456 35.6122C19.3214 35.6122 20.2788 35.5398 21.2125 35.4002V23.2404H25.4864H25.489Z" fill="white"/>
</svg>
