<svg width="38" height="36" viewBox="0 0 38 36" fill="none" xmlns="http://www.w3.org/2000/svg">
<path d="M19.2241 35.6125C29.5937 35.6125 38 27.6404 38 17.8062C38 7.97213 29.5937 0 19.2241 0C8.85449 0 0.448242 7.97213 0.448242 17.8062C0.448242 27.6404 8.85449 35.6125 19.2241 35.6125Z" fill="#40839D"/>
<path d="M25.0516 11.0699C24.3384 11.0699 23.7598 11.6187 23.7598 12.2951C23.7598 12.9716 24.3384 13.5203 25.0516 13.5203C25.7649 13.5203 26.3436 12.9716 26.3436 12.2951C26.3436 11.6187 25.7649 11.0699 25.0516 11.0699Z" fill="white"/>
<path d="M19.3133 12.6398C16.323 12.6398 13.8926 14.9472 13.8926 17.7805C13.8926 20.6138 16.3257 22.9212 19.3133 22.9212C22.3008 22.9212 24.7339 20.6138 24.7339 17.7805C24.7339 14.9472 22.3008 12.6398 19.3133 12.6398ZM19.3133 21.0758C17.3969 21.0758 15.8412 19.5979 15.8412 17.7831C15.8412 15.9682 17.3996 14.4903 19.3133 14.4903C21.2269 14.4903 22.7853 15.9682 22.7853 17.7831C22.7853 19.5979 21.2269 21.0758 19.3133 21.0758Z" fill="white"/>
<path d="M23.6168 28.2202H14.8263C11.1794 28.2202 8.21338 25.4073 8.21338 21.9487V13.6122C8.21338 10.1536 11.1794 7.3407 14.8263 7.3407H23.6168C27.2638 7.3407 30.2298 10.1536 30.2298 13.6122V21.9487C30.2298 25.4073 27.2638 28.2202 23.6168 28.2202ZM14.8263 9.30612C12.3232 9.30612 10.2858 11.2384 10.2858 13.6122V21.9487C10.2858 24.3225 12.3232 26.2547 14.8263 26.2547H23.6168C26.1199 26.2547 28.1573 24.3225 28.1573 21.9487V13.6122C28.1573 11.2358 26.1199 9.30612 23.6168 9.30612H14.8263Z" fill="white"/>
</svg>
