<svg width="146" height="145" viewBox="0 0 146 145" fill="none" xmlns="http://www.w3.org/2000/svg">
<g filter="url(#filter0_d_1_83)">
<rect x="30" y="30" width="86" height="85" rx="15" fill="#3D81C2"/>
</g>
<path d="M83.9007 72.7418C83.7754 72.6174 83.6269 72.5188 83.4635 72.4519C83.3001 72.3849 83.1252 72.3507 82.9486 72.3513C82.772 72.352 82.5973 72.3873 82.4345 72.4555C82.2716 72.5236 82.1237 72.6232 81.9993 72.7485C81.8749 72.8738 81.7764 73.0223 81.7094 73.1857C81.6424 73.3491 81.6082 73.524 81.6089 73.7006C81.6095 73.8771 81.6449 74.0518 81.713 74.2147C81.7812 74.3776 81.8807 74.5255 82.006 74.6499C83.1431 75.7749 84.0456 77.1143 84.6615 78.5905C85.2773 80.0667 85.5942 81.6504 85.5938 83.2499C85.5938 84.8893 80.8773 87.2811 73.5001 87.2811C66.1229 87.2811 61.4063 84.8893 61.4063 83.2499C61.4042 81.6609 61.7152 80.0871 62.3216 78.6184C62.928 77.1497 63.8179 75.8148 64.9404 74.6902C65.1907 74.4384 65.3311 74.0979 65.3311 73.7429C65.3311 73.3879 65.1907 73.0473 64.9404 72.7955C64.6886 72.5452 64.3481 72.4048 63.9931 72.4048C63.6381 72.4048 63.2975 72.5452 63.0457 72.7955C61.6685 74.165 60.5769 75.7943 59.8341 77.5889C59.0914 79.3835 58.7123 81.3077 58.7188 83.2499C58.7188 87.6171 66.3379 89.9686 73.5001 89.9686C80.6623 89.9686 88.2813 87.6171 88.2813 83.2499C88.2865 81.2951 87.9017 79.3589 87.1495 77.5545C86.3974 75.7502 85.2929 74.1141 83.9007 72.7418Z" fill="white"/>
<path d="M73.5 73.8438C75.3604 73.8438 77.179 73.2921 78.7258 72.2585C80.2727 71.2249 81.4783 69.7559 82.1902 68.0371C82.9022 66.3184 83.0885 64.4271 82.7255 62.6024C82.3626 60.7778 81.4667 59.1018 80.1512 57.7863C78.8357 56.4708 77.1597 55.5749 75.3351 55.212C73.5104 54.8491 71.6192 55.0353 69.9004 55.7473C68.1816 56.4592 66.7126 57.6648 65.679 59.2117C64.6454 60.7585 64.0938 62.5771 64.0938 64.4375C64.0938 66.9322 65.0848 69.3247 66.8488 71.0887C68.6128 72.8527 71.0053 73.8438 73.5 73.8438ZM73.5 57.7188C74.8288 57.7188 76.1278 58.1128 77.2327 58.8511C78.3376 59.5893 79.1988 60.6387 79.7073 61.8664C80.2158 63.094 80.3489 64.445 80.0897 65.7483C79.8304 67.0516 79.1905 68.2487 78.2509 69.1884C77.3112 70.128 76.1141 70.7679 74.8108 71.0272C73.5075 71.2864 72.1565 71.1533 70.9288 70.6448C69.7012 70.1363 68.6518 69.2751 67.9136 68.1702C67.1753 67.0653 66.7812 65.7663 66.7812 64.4375C66.7812 62.6556 67.4891 60.9466 68.7491 59.6866C70.0091 58.4266 71.7181 57.7188 73.5 57.7188Z" fill="white"/>
<defs>
<filter id="filter0_d_1_83" x="0" y="0" width="146" height="145" filterUnits="userSpaceOnUse" color-interpolation-filters="sRGB">
<feFlood flood-opacity="0" result="BackgroundImageFix"/>
<feColorMatrix in="SourceAlpha" type="matrix" values="0 0 0 0 0 0 0 0 0 0 0 0 0 0 0 0 0 0 127 0" result="hardAlpha"/>
<feOffset/>
<feGaussianBlur stdDeviation="15"/>
<feComposite in2="hardAlpha" operator="out"/>
<feColorMatrix type="matrix" values="0 0 0 0 0 0 0 0 0 0 0 0 0 0 0 0 0 0 0.15 0"/>
<feBlend mode="normal" in2="BackgroundImageFix" result="effect1_dropShadow_1_83"/>
<feBlend mode="normal" in="SourceGraphic" in2="effect1_dropShadow_1_83" result="shape"/>
</filter>
</defs>
</svg>
