<svg width="146" height="145" viewBox="0 0 146 145" fill="none" xmlns="http://www.w3.org/2000/svg">
<g filter="url(#filter0_d_1_94)">
<rect x="30" y="30" width="86" height="85" rx="15" fill="#99BE47"/>
</g>
<path d="M73.5 92.6563C69.5135 92.6563 65.6165 91.4741 62.3018 89.2593C58.9871 87.0445 56.4036 83.8965 54.8781 80.2135C53.3525 76.5304 52.9533 72.4776 53.7311 68.5677C54.5088 64.6578 56.4285 61.0663 59.2474 58.2474C62.0663 55.4285 65.6578 53.5088 69.5677 52.7311C73.4776 51.9533 77.5304 52.3525 81.2135 53.8781C84.8965 55.4036 88.0445 57.9871 90.2593 61.3018C92.4741 64.6165 93.6563 68.5135 93.6563 72.5C93.6563 77.8458 91.5327 82.9726 87.7526 86.7526C83.9726 90.5327 78.8458 92.6563 73.5 92.6563ZM73.5 55.0313C70.045 55.0313 66.6676 56.0558 63.7949 57.9753C60.9222 59.8948 58.6832 62.623 57.361 65.815C56.0388 69.007 55.6929 72.5194 56.3669 75.908C57.041 79.2966 58.7047 82.4092 61.1477 84.8523C63.5908 87.2953 66.7034 88.9591 70.092 89.6331C73.4806 90.3071 76.993 89.9612 80.185 88.639C83.377 87.3169 86.1053 85.0778 88.0247 82.2051C89.9442 79.3324 90.9688 75.955 90.9688 72.5C90.9688 67.867 89.1283 63.4238 85.8523 60.1477C82.5763 56.8717 78.133 55.0313 73.5 55.0313Z" fill="white"/>
<path d="M79.1975 80.1056L72.546 73.4541C72.4214 73.3285 72.3229 73.1796 72.256 73.0159C72.1891 72.8522 72.1553 72.6768 72.1563 72.5V61.75H74.8438V71.9491L81.1056 78.1975L79.1975 80.1056Z" fill="white"/>
<defs>
<filter id="filter0_d_1_94" x="0" y="0" width="146" height="145" filterUnits="userSpaceOnUse" color-interpolation-filters="sRGB">
<feFlood flood-opacity="0" result="BackgroundImageFix"/>
<feColorMatrix in="SourceAlpha" type="matrix" values="0 0 0 0 0 0 0 0 0 0 0 0 0 0 0 0 0 0 127 0" result="hardAlpha"/>
<feOffset/>
<feGaussianBlur stdDeviation="15"/>
<feComposite in2="hardAlpha" operator="out"/>
<feColorMatrix type="matrix" values="0 0 0 0 0 0 0 0 0 0 0 0 0 0 0 0 0 0 0.15 0"/>
<feBlend mode="normal" in2="BackgroundImageFix" result="effect1_dropShadow_1_94"/>
<feBlend mode="normal" in="SourceGraphic" in2="effect1_dropShadow_1_94" result="shape"/>
</filter>
</defs>
</svg>
